<svg width="120" height="61" viewBox="0 0 120 61" fill="none" xmlns="http://www.w3.org/2000/svg">
<g clip-path="url(#clip0_2613_9613)">
<path d="M46.3139 58.3697H45.5199V60.2485H46.366C46.8346 60.2485 47.147 60.2096 47.3162 60.1448C47.4854 60.08 47.6156 59.9634 47.7197 59.8079C47.8238 59.6525 47.8759 59.497 47.8759 59.3156C47.8759 59.1342 47.8238 58.9658 47.7197 58.8232C47.6156 58.6678 47.4594 58.5641 47.2641 58.4864C47.0689 58.4086 46.7565 58.3697 46.3269 58.3697M46.2619 55.8173H45.5329V57.6053H46.1057C46.5612 57.6053 46.8866 57.5146 47.0819 57.3462C47.2771 57.1777 47.3683 56.9445 47.3683 56.6724C47.3683 56.1023 47.0038 55.8173 46.2749 55.8173M46.6914 61H44.6738V55.0658H46.2358C46.7305 55.0658 47.1079 55.1306 47.3943 55.2601C47.6676 55.3897 47.8759 55.5711 48.0321 55.8043C48.1753 56.0375 48.2534 56.3096 48.2534 56.6076C48.2534 57.1907 47.954 57.6053 47.3422 57.8644C47.7718 57.9422 48.1232 58.1236 48.3836 58.3957C48.6439 58.6678 48.7741 59.0046 48.7741 59.3804C48.7741 59.6913 48.696 59.9505 48.5398 60.1966C48.3836 60.4299 48.1493 60.6242 47.8499 60.7797C47.5505 60.9352 47.16 61 46.7044 61" fill="#172A54"/>
<path d="M55.2423 58.4864L54.279 56.3356L53.3809 58.4864H55.2423ZM53.9927 55.027H54.5914L57.2728 61H56.4007L55.6067 59.2379H53.0685L52.3265 61H51.4414L54.0057 55.027H53.9927Z" fill="#172A54"/>
<path d="M65.1104 55.0658H65.9175V61H65.1885L61.1924 56.4262V61H60.3984V55.0658H61.0883L65.1104 59.6784V55.0658Z" fill="#172A54"/>
<path d="M73.635 55.0658H74.7023L72.112 57.8904L75.3401 61H74.1687L71.1228 58.0717V61H70.2637V55.0658H71.1228V57.7867L73.635 55.0658Z" fill="#172A54"/>
<path d="M107.803 50.5958C107.803 50.5958 99.8373 50.4533 95.8543 50.3885L83.905 50.2719L60.0065 50.1682L36.1081 50.2719L24.1588 50.3885C20.1758 50.4662 12.2096 50.5958 12.2096 50.5958C12.1706 50.5958 12.1445 50.6346 12.1445 50.6606C12.1445 50.6865 12.1706 50.7253 12.2096 50.7253C12.2096 50.7253 20.1758 50.8679 24.1588 50.9327L36.1081 51.0493L60.0065 51.1529L83.905 51.0493L95.8543 50.9327C99.8373 50.8549 107.803 50.7124 107.803 50.7124C107.843 50.7124 107.869 50.6865 107.869 50.6476C107.869 50.6087 107.843 50.5828 107.803 50.5828" fill="#172A54"/>
<path d="M3.6837 34.8016H0C0.299382 35.3199 0.507647 35.6697 0.507647 37.3023V43.7936C0.507647 45.3095 0.403514 45.6593 0.0390498 46.3201H3.64465C3.24113 45.5816 3.17605 45.167 3.17605 43.7936V37.3023C3.17605 35.6827 3.3713 35.3329 3.6837 34.8016Z" fill="#172A54"/>
<path d="M17.6238 34.8016H14.1874C14.4868 35.4754 14.5519 35.6179 14.5909 37.2375L14.7341 42.5756L9.00681 34.8016H5.92188C6.32539 35.5143 6.53365 36.0325 6.53365 37.6651V43.7936C6.53365 45.1929 6.46857 45.5945 6.06506 46.3201H9.41032C9.21507 45.7371 9.08491 45.2836 9.04586 43.6251L8.94172 38.0797L15.0856 46.3201H17.2333C17.1812 45.8148 17.1292 45.2965 17.1292 43.3789V37.3023C17.1292 35.6827 17.3244 35.3329 17.6368 34.8016" fill="#172A54"/>
<path d="M25.89 43.9101C25.2522 44.2081 24.3801 44.2081 23.1044 44.2081V36.8876C23.521 36.8487 23.9375 36.8358 24.315 36.8358C25.0049 36.8358 25.7859 36.8747 26.4237 37.4577C27.2958 38.2481 27.4259 39.6992 27.4259 40.5803C27.4259 42.1351 27.0224 43.3919 25.877 43.9101M28.0768 35.5919C27.0485 34.8793 25.7859 34.8016 24.2369 34.8016H21.6205C21.3732 34.8016 21.0869 34.8016 20.7875 34.7886C20.4751 34.7886 20.1757 34.7757 19.9414 34.7498C20.2538 35.281 20.4491 35.6179 20.4491 37.2504V43.7935C20.4491 45.2058 20.384 45.5945 19.9805 46.3201C20.8786 46.2812 21.217 46.2812 21.5945 46.2812C21.9199 46.2812 23.534 46.3201 23.8985 46.3201C24.9918 46.3201 26.2284 46.2682 27.2307 45.7629C29.7169 44.558 30.1074 41.9796 30.1074 40.4636C30.1074 37.976 29.1572 36.3564 28.0768 35.5919Z" fill="#172A54"/>
<path d="M35.2099 44.2211V41.254H36.7198C36.9411 41.254 37.5399 41.254 37.9694 41.3058V39.1291C37.644 39.1939 37.3056 39.2328 36.8891 39.2328H35.2099V36.8617H37.3707C38.2428 36.8617 38.4771 36.9654 38.7244 37.069L38.6203 35.294C38.6073 34.7886 38.5812 34.7886 37.9564 34.7886H33.5308C33.1273 34.7886 32.8409 34.7757 32.6066 34.7757C32.3853 34.7627 32.2291 34.7368 32.0859 34.7368C32.3983 35.3069 32.5936 35.6827 32.5936 37.2634V43.8065C32.5936 45.3742 32.4504 45.7241 32.125 46.3071C33.1663 46.2942 33.713 46.2683 34.5851 46.2683C35.0667 46.2683 37.4618 46.3071 38.0215 46.3071C38.7504 46.3071 38.8415 46.3071 38.9457 45.7889L39.3232 44.0138C38.9457 44.1304 38.6333 44.2211 37.657 44.2211H35.1969H35.2099Z" fill="#172A54"/>
<path d="M44.5166 40.2175V36.7321C44.9722 36.6803 45.1284 36.6803 45.2325 36.6803C46.1306 36.6803 47.1459 36.9783 47.1459 38.4035C47.1459 39.8288 46.2087 40.2952 44.5296 40.2175M45.662 34.8016C45.5579 34.8016 43.5924 34.8145 43.2019 34.8145C42.4079 34.8275 41.9523 34.8016 41.4316 34.7498C41.7831 35.4883 41.9393 35.8252 41.9393 37.3152V43.7935C41.9393 45.3483 41.8221 45.6981 41.4707 46.3201H45.0763C44.6467 45.5556 44.6077 45.128 44.6077 43.7935V42.1739C44.8029 42.1869 44.9852 42.2128 45.2455 42.2128C47.5364 42.2128 49.58 41.1374 49.58 38.3776C49.58 37.38 49.2807 36.46 48.6949 35.7992C48.1742 35.2162 47.3542 34.8016 45.662 34.8016Z" fill="#172A54"/>
<path d="M54.6318 44.2211V41.254H56.1417C56.363 41.254 56.9618 41.254 57.3913 41.3058V39.1291C57.0659 39.1939 56.7275 39.2328 56.3109 39.2328H54.6318V36.8617H56.7926C57.6647 36.8617 57.899 36.9654 58.1463 37.069L58.0421 35.294C58.0291 34.7886 58.0031 34.7886 57.3783 34.7886H52.9527C52.5491 34.7886 52.2628 34.7757 52.0285 34.7757C51.8072 34.7627 51.651 34.7368 51.5078 34.7368C51.8202 35.3069 52.0155 35.6827 52.0155 37.2634V43.8065C52.0155 45.3742 51.8723 45.7241 51.5469 46.3071C52.5882 46.2942 53.1479 46.2683 54.007 46.2683C54.4886 46.2683 56.8837 46.3071 57.4434 46.3071C58.1723 46.3071 58.2634 46.3071 58.3676 45.7889L58.745 44.0138C58.3676 44.1304 58.0552 44.2211 57.0789 44.2211H54.6188H54.6318Z" fill="#172A54"/>
<path d="M72.1648 34.8016H68.7284C69.0278 35.4754 69.0929 35.6179 69.1319 37.2375L69.2751 42.5756L63.5478 34.8016H60.4629C60.8664 35.5143 61.0747 36.0325 61.0747 37.6651V43.7936C61.0747 45.1929 61.0096 45.5945 60.6061 46.3201H63.9513C63.7561 45.7371 63.6259 45.2836 63.5869 43.6251L63.4827 38.0797L69.6266 46.3201H71.7743C71.7222 45.8148 71.6702 45.2965 71.6702 43.3789V37.3023C71.6702 35.6827 71.8654 35.3329 72.1778 34.8016" fill="#172A54"/>
<path d="M80.4291 43.9101C79.7912 44.2081 78.9191 44.2081 77.6435 44.2081V36.8876C78.06 36.8487 78.4766 36.8358 78.854 36.8358C79.5439 36.8358 80.3249 36.8747 80.9627 37.4577C81.8348 38.2481 81.965 39.6992 81.965 40.5803C81.965 42.1351 81.5615 43.3919 80.416 43.9101M82.6158 35.5919C81.5875 34.8793 80.3249 34.8016 78.7759 34.8016H76.1596C75.9123 34.8016 75.6259 34.8016 75.3265 34.7886C75.0141 34.7886 74.7148 34.7757 74.4805 34.7498C74.7929 35.281 74.9881 35.6179 74.9881 37.2504V43.7935C74.9881 45.2058 74.923 45.5945 74.5195 46.3201C75.4177 46.2812 75.7561 46.2812 76.1336 46.2812C76.459 46.2812 78.073 46.3201 78.4375 46.3201C79.5309 46.3201 80.7675 46.2682 81.7698 45.7629C84.2559 44.558 84.6464 41.9796 84.6464 40.4636C84.6464 37.976 83.6962 36.3564 82.6158 35.5919Z" fill="#172A54"/>
<path d="M89.7099 44.2211V41.254H91.2199C91.4411 41.254 92.0399 41.254 92.4694 41.3058V39.1291C92.144 39.1939 91.8056 39.2328 91.3891 39.2328H89.7099V36.8617H91.8707C92.7428 36.8617 92.9771 36.9654 93.2244 37.069L93.1203 35.294C93.1073 34.7886 93.0812 34.7886 92.4564 34.7886H88.0308C87.6273 34.7886 87.3409 34.7757 87.1066 34.7757C86.8853 34.7627 86.7291 34.7368 86.5859 34.7368C86.8983 35.3069 87.0936 35.6827 87.0936 37.2634V43.8065C87.0936 45.3742 86.9504 45.7241 86.625 46.3071C87.6663 46.2942 88.226 46.2683 89.0851 46.2683C89.5667 46.2683 91.9618 46.3071 92.5215 46.3071C93.2504 46.3071 93.3416 46.3071 93.4457 45.7889L93.8232 44.0138C93.4457 44.1304 93.1333 44.2211 92.1571 44.2211H89.6969H89.7099Z" fill="#172A54"/>
<path d="M107.245 34.8016H103.809C104.108 35.4754 104.173 35.6179 104.212 37.2375L104.355 42.5756L98.6279 34.8016H95.543C95.9465 35.5143 96.1548 36.0325 96.1548 37.6651V43.7936C96.1548 45.1929 96.0897 45.5945 95.6862 46.3201H99.0314C98.8362 45.7371 98.706 45.2836 98.667 43.6251L98.5628 38.0797L104.707 46.3201H106.854C106.802 45.8148 106.75 45.2965 106.75 43.3789V37.3023C106.75 35.6827 106.946 35.3329 107.258 34.8016" fill="#172A54"/>
<path d="M117.957 34.8016H110.511C109.847 34.8016 109.769 34.8534 109.587 35.3587L108.949 37.1208C109.223 37.056 109.795 36.8746 110.732 36.8746H113.088V43.7935C113.088 45.2447 112.997 45.6204 112.62 46.3201H116.226C115.822 45.5815 115.757 45.1669 115.757 43.7935V36.8746H118.477C119.219 36.8746 119.31 36.8746 119.467 36.3434L119.987 34.7498C119.349 34.8016 118.582 34.8016 117.944 34.8016" fill="#172A54"/>
<path d="M76.7711 16.0274C76.7711 16.0274 79.1531 13.0992 79.2052 11.5055C77.9686 12.7364 75.8469 14.7317 73.1655 16.7789C73.1655 16.7789 75.2351 14.4208 75.4173 13.0344C74.7925 13.6434 72.788 15.4962 70.0545 17.4008C70.0545 17.4008 71.8117 15.5739 71.8638 14.5763C71.5384 14.8483 69.8983 16.2995 67.6074 17.9191C66.6702 18.5799 65.5507 19.3443 64.158 20.1865C65.1863 20.0958 66.4229 20.1347 66.7353 20.2124C66.9175 20.2513 67.5553 20.7825 67.6204 20.8084C67.6855 20.8343 68.2712 20.938 68.4144 21.0287C68.6357 21.1712 68.7919 21.521 68.7919 21.8061C68.7919 22.2725 68.7268 22.441 68.5706 22.713C68.5706 22.726 68.5576 22.2207 68.3103 22.1689C68.063 22.117 67.1908 22.1041 66.9826 22.1689C66.7873 22.2336 64.939 23.7625 64.7437 23.8532C60.7346 21.4822 54.005 14.2523 50.9722 9.63976C47.9393 4.97536 47.3796 0 47.3796 0C46.117 1.99533 46.3513 5.88233 48.1736 9.75637C48.3558 10.1451 48.5511 10.5338 48.7593 10.8966C48.7593 10.8966 45.6874 8.33114 45.388 2.68203C43.9302 4.65144 44.555 8.84941 47.0411 12.8141C47.1583 13.0085 47.2885 13.2028 47.4186 13.3842C47.4186 13.3842 45.1017 11.4537 43.787 7.37234C42.8758 9.56202 44.3207 13.3583 47.4316 16.5975C47.4316 16.5975 45.2969 15.3277 43.4355 11.7387C43.7089 13.7082 44.3727 15.1723 46.2602 17.6859C48.0825 20.1087 53.6796 25.2266 54.1873 25.6931C54.1873 25.6931 53.5234 26.2373 51.1804 27.3645C48.8374 28.5047 48.3168 28.5306 48.3168 28.5306C48.3168 28.5306 49.6705 29.2043 50.3864 29.4376C51.1023 29.6708 52.6253 30.0336 53.237 29.9947C53.8488 29.9558 56.9207 29.0489 60.0057 28.0771C63.2338 27.0665 66.2146 25.7708 70.1326 23.1924C80.8452 16.157 83.1752 10.3783 83.5267 9.63976C82.1599 11.1039 79.7909 13.5138 76.7971 16.0144" fill="#172A54"/>
</g>
<defs>
<clipPath id="clip0_2613_9613">
<rect width="120" height="61" fill="white"/>
</clipPath>
</defs>
</svg>
